# xmcd
#
# Track frame offsets:
#	182
#	15717
#	34102
#	56220
#	70237
#	84815
#	100575
#	120125
#	138422
#	153370
#
# Disc length: 2248 seconds
#
# Revision: 0
# Processed by: cddbd v1.4PL0 Copyright (c) Steve Scherf et al.
# Submitted via: audiograbber 1.81.00
#
DISCID=7208c60a
DTITLE=LE PICCOLE ORE - VOGLIO AMARTI COSI'
DYEAR=1900
DGENRE=POP
TTITLE0=VOGLIO AMARTI COSI'
TTITLE1=LAURA
TTITLE2=LA PIU' BELLA DEL MONDO
TTITLE3=NESSUNO AL MONDO
TTITLE4=UN BACIO ANCOR KIN
TTITLE5=BAMBINA MIA
TTITLE6=LA PLAIA
TTITLE7=PAROLE D'AMORE SULLA SABBIA
TTITLE8=RITORNA DA ME
TTITLE9=SEMPRE NEL MIO CUOR
EXTD=
EXTT0=
EXTT1=
EXTT2=
EXTT3=
EXTT4=
EXTT5=
EXTT6=
EXTT7=
EXTT8=
EXTT9=
PLAYORDER=
